<svg width="24" height="24" viewBox="0 0 24 24" fill="none" xmlns="http://www.w3.org/2000/svg"><g id="biifile-zip"><path id="fill1" d="M4 22H20V8H14V2H4V22Z" fill="transparent"/><path id="stroke1" d="M14 2V8H20M14 2H15L20 7V8M14 2H4V22H20V8" stroke-width="2" stroke="currentColor"/><g id="biistroke2"><path d="M8 6H8.00391V6.00391H8V6ZM10 4H10.0039V4.00391H10V4ZM10 8H10.0039V8.00391H10V8ZM8 10H8.00391V10.0039H8V10ZM8 14H8.00391V14.0039H8V14ZM10 12H10.0039V12.0039H10V12Z" id="stroke2" stroke-width="2" stroke="currentColor"/></g></g></svg>